<mxfile host="Electron" agent="Mozilla/5.0 (Macintosh; Intel Mac OS X 10_15_7) AppleWebKit/537.36 (KHTML, like Gecko) draw.io/25.0.2 Chrome/128.0.6613.186 Electron/32.2.5 Safari/537.36" version="25.0.2">
  <diagram name="Page-1" id="31ScF6gmQ3gUEPgHmf61">
    <mxGraphModel dx="2565" dy="1710" grid="1" gridSize="10" guides="1" tooltips="1" connect="1" arrows="1" fold="1" page="1" pageScale="1" pageWidth="850" pageHeight="1100" math="0" shadow="0">
      <root>
        <mxCell id="0" />
        <mxCell id="1" parent="0" />
        <mxCell id="dQmTUkOF_J-LCE25Mf6I-7" style="edgeStyle=orthogonalEdgeStyle;rounded=1;orthogonalLoop=1;jettySize=auto;html=1;curved=0;" edge="1" parent="1" source="dQmTUkOF_J-LCE25Mf6I-2" target="dQmTUkOF_J-LCE25Mf6I-3">
          <mxGeometry relative="1" as="geometry">
            <Array as="points">
              <mxPoint x="480" y="820" />
            </Array>
          </mxGeometry>
        </mxCell>
        <mxCell id="dQmTUkOF_J-LCE25Mf6I-10" value="1 File" style="edgeLabel;html=1;align=center;verticalAlign=middle;resizable=0;points=[];" vertex="1" connectable="0" parent="dQmTUkOF_J-LCE25Mf6I-7">
          <mxGeometry x="-0.4566" y="3" relative="1" as="geometry">
            <mxPoint as="offset" />
          </mxGeometry>
        </mxCell>
        <mxCell id="dQmTUkOF_J-LCE25Mf6I-9" style="edgeStyle=orthogonalEdgeStyle;rounded=1;orthogonalLoop=1;jettySize=auto;html=1;curved=0;" edge="1" parent="1" source="dQmTUkOF_J-LCE25Mf6I-2" target="dQmTUkOF_J-LCE25Mf6I-8">
          <mxGeometry relative="1" as="geometry" />
        </mxCell>
        <mxCell id="dQmTUkOF_J-LCE25Mf6I-11" value="n files" style="edgeLabel;html=1;align=center;verticalAlign=middle;resizable=0;points=[];" vertex="1" connectable="0" parent="dQmTUkOF_J-LCE25Mf6I-9">
          <mxGeometry x="-0.4792" relative="1" as="geometry">
            <mxPoint x="1" as="offset" />
          </mxGeometry>
        </mxCell>
        <mxCell id="dQmTUkOF_J-LCE25Mf6I-2" value="Add file(s)" style="rounded=1;whiteSpace=wrap;html=1;" vertex="1" parent="1">
          <mxGeometry x="40" y="790" width="170" height="100" as="geometry" />
        </mxCell>
        <mxCell id="dQmTUkOF_J-LCE25Mf6I-3" value="Single File Page" style="rounded=1;whiteSpace=wrap;html=1;labelPosition=center;verticalLabelPosition=top;align=left;verticalAlign=bottom;textDirection=ltr;" vertex="1" parent="1">
          <mxGeometry x="270" y="350" width="500" height="400" as="geometry" />
        </mxCell>
        <mxCell id="dQmTUkOF_J-LCE25Mf6I-8" value="Group Files Page" style="rounded=1;html=1;labelPosition=center;verticalLabelPosition=top;align=left;verticalAlign=bottom;whiteSpace=wrap;" vertex="1" parent="1">
          <mxGeometry x="230" y="980" width="510" height="400" as="geometry" />
        </mxCell>
        <mxCell id="dQmTUkOF_J-LCE25Mf6I-17" value="Strategy 1" style="swimlane;fontStyle=0;childLayout=stackLayout;horizontal=1;startSize=30;horizontalStack=0;resizeParent=1;resizeParentMax=0;resizeLast=0;collapsible=1;marginBottom=0;whiteSpace=wrap;html=1;" vertex="1" parent="1">
          <mxGeometry x="310" y="400" width="140" height="90" as="geometry" />
        </mxCell>
        <mxCell id="dQmTUkOF_J-LCE25Mf6I-18" value="Action 1" style="text;strokeColor=none;fillColor=none;align=left;verticalAlign=middle;spacingLeft=4;spacingRight=4;overflow=hidden;points=[[0,0.5],[1,0.5]];portConstraint=eastwest;rotatable=0;whiteSpace=wrap;html=1;" vertex="1" parent="dQmTUkOF_J-LCE25Mf6I-17">
          <mxGeometry y="30" width="140" height="30" as="geometry" />
        </mxCell>
        <mxCell id="dQmTUkOF_J-LCE25Mf6I-19" value="Action 2" style="text;strokeColor=none;fillColor=none;align=left;verticalAlign=middle;spacingLeft=4;spacingRight=4;overflow=hidden;points=[[0,0.5],[1,0.5]];portConstraint=eastwest;rotatable=0;whiteSpace=wrap;html=1;" vertex="1" parent="dQmTUkOF_J-LCE25Mf6I-17">
          <mxGeometry y="60" width="140" height="30" as="geometry" />
        </mxCell>
        <mxCell id="dQmTUkOF_J-LCE25Mf6I-21" value="Stragegy 2" style="swimlane;fontStyle=0;childLayout=stackLayout;horizontal=1;startSize=30;horizontalStack=0;resizeParent=1;resizeParentMax=0;resizeLast=0;collapsible=1;marginBottom=0;whiteSpace=wrap;html=1;" vertex="1" parent="1">
          <mxGeometry x="310" y="490" width="140" height="30" as="geometry" />
        </mxCell>
        <mxCell id="dQmTUkOF_J-LCE25Mf6I-25" value="Result" style="swimlane;whiteSpace=wrap;html=1;" vertex="1" parent="1">
          <mxGeometry x="540" y="400" width="180" height="240" as="geometry" />
        </mxCell>
        <mxCell id="dQmTUkOF_J-LCE25Mf6I-26" value="result file" style="shape=note;whiteSpace=wrap;html=1;backgroundOutline=1;darkOpacity=0.05;labelPosition=center;verticalLabelPosition=bottom;align=center;verticalAlign=top;" vertex="1" parent="dQmTUkOF_J-LCE25Mf6I-25">
          <mxGeometry x="55" y="40" width="70" height="70" as="geometry" />
        </mxCell>
        <mxCell id="dQmTUkOF_J-LCE25Mf6I-27" value="Files" style="swimlane;fontStyle=0;childLayout=stackLayout;horizontal=1;startSize=30;horizontalStack=0;resizeParent=1;resizeParentMax=0;resizeLast=0;collapsible=1;marginBottom=0;whiteSpace=wrap;html=1;" vertex="1" parent="1">
          <mxGeometry x="280" y="1020" width="150" height="120" as="geometry" />
        </mxCell>
        <mxCell id="dQmTUkOF_J-LCE25Mf6I-28" value="File_1.pdf" style="text;strokeColor=none;fillColor=none;align=left;verticalAlign=middle;spacingLeft=4;spacingRight=4;overflow=hidden;points=[[0,0.5],[1,0.5]];portConstraint=eastwest;rotatable=0;whiteSpace=wrap;html=1;" vertex="1" parent="dQmTUkOF_J-LCE25Mf6I-27">
          <mxGeometry y="30" width="150" height="30" as="geometry" />
        </mxCell>
        <mxCell id="dQmTUkOF_J-LCE25Mf6I-29" value="File_2.pdf" style="text;strokeColor=none;fillColor=none;align=left;verticalAlign=middle;spacingLeft=4;spacingRight=4;overflow=hidden;points=[[0,0.5],[1,0.5]];portConstraint=eastwest;rotatable=0;whiteSpace=wrap;html=1;" vertex="1" parent="dQmTUkOF_J-LCE25Mf6I-27">
          <mxGeometry y="60" width="150" height="30" as="geometry" />
        </mxCell>
        <mxCell id="dQmTUkOF_J-LCE25Mf6I-30" value="File_3.pdf" style="text;strokeColor=none;fillColor=none;align=left;verticalAlign=middle;spacingLeft=4;spacingRight=4;overflow=hidden;points=[[0,0.5],[1,0.5]];portConstraint=eastwest;rotatable=0;whiteSpace=wrap;html=1;" vertex="1" parent="dQmTUkOF_J-LCE25Mf6I-27">
          <mxGeometry y="90" width="150" height="30" as="geometry" />
        </mxCell>
        <mxCell id="dQmTUkOF_J-LCE25Mf6I-35" value="Strategy 1" style="swimlane;fontStyle=0;childLayout=stackLayout;horizontal=1;startSize=30;horizontalStack=0;resizeParent=1;resizeParentMax=0;resizeLast=0;collapsible=1;marginBottom=0;whiteSpace=wrap;html=1;align=center;" vertex="1" parent="1">
          <mxGeometry x="280" y="1190" width="150" height="90" as="geometry" />
        </mxCell>
        <mxCell id="dQmTUkOF_J-LCE25Mf6I-36" value="Action 1" style="text;strokeColor=none;fillColor=none;align=left;verticalAlign=middle;spacingLeft=4;spacingRight=4;overflow=hidden;points=[[0,0.5],[1,0.5]];portConstraint=eastwest;rotatable=0;whiteSpace=wrap;html=1;" vertex="1" parent="dQmTUkOF_J-LCE25Mf6I-35">
          <mxGeometry y="30" width="150" height="30" as="geometry" />
        </mxCell>
        <mxCell id="dQmTUkOF_J-LCE25Mf6I-37" value="Action 2" style="text;strokeColor=none;fillColor=none;align=left;verticalAlign=middle;spacingLeft=4;spacingRight=4;overflow=hidden;points=[[0,0.5],[1,0.5]];portConstraint=eastwest;rotatable=0;whiteSpace=wrap;html=1;" vertex="1" parent="dQmTUkOF_J-LCE25Mf6I-35">
          <mxGeometry y="60" width="150" height="30" as="geometry" />
        </mxCell>
        <mxCell id="dQmTUkOF_J-LCE25Mf6I-38" value="Stragegy 2" style="swimlane;fontStyle=0;childLayout=stackLayout;horizontal=1;startSize=30;horizontalStack=0;resizeParent=1;resizeParentMax=0;resizeLast=0;collapsible=1;marginBottom=0;whiteSpace=wrap;html=1;align=center;" vertex="1" parent="1">
          <mxGeometry x="280" y="1280" width="150" height="30" as="geometry" />
        </mxCell>
        <mxCell id="dQmTUkOF_J-LCE25Mf6I-39" value="Group strategy" style="text;html=1;align=left;verticalAlign=middle;whiteSpace=wrap;rounded=0;" vertex="1" parent="1">
          <mxGeometry x="280" y="1160" width="110" height="30" as="geometry" />
        </mxCell>
        <mxCell id="dQmTUkOF_J-LCE25Mf6I-40" value="Result" style="swimlane;whiteSpace=wrap;html=1;" vertex="1" parent="1">
          <mxGeometry x="510" y="1020" width="190" height="260" as="geometry" />
        </mxCell>
        <mxCell id="dQmTUkOF_J-LCE25Mf6I-41" value="result file" style="shape=note;whiteSpace=wrap;html=1;backgroundOutline=1;darkOpacity=0.05;labelPosition=center;verticalLabelPosition=bottom;align=center;verticalAlign=top;" vertex="1" parent="dQmTUkOF_J-LCE25Mf6I-40">
          <mxGeometry x="55" y="40" width="70" height="70" as="geometry" />
        </mxCell>
        <mxCell id="dQmTUkOF_J-LCE25Mf6I-48" value="&lt;h1 style=&quot;margin-top: 0px;&quot;&gt;&lt;font style=&quot;font-size: 17px;&quot;&gt;Info&lt;/font&gt;&lt;/h1&gt;&lt;p&gt;The common&amp;nbsp; CF is&lt;br&gt;- ABC12D3E456F&lt;/p&gt;" style="text;html=1;whiteSpace=wrap;overflow=hidden;rounded=0;" vertex="1" parent="dQmTUkOF_J-LCE25Mf6I-40">
          <mxGeometry y="140" width="190" height="120" as="geometry" />
        </mxCell>
        <mxCell id="dQmTUkOF_J-LCE25Mf6I-43" value="&lt;b&gt;Possible improve&lt;br&gt;&lt;/b&gt;&lt;ul&gt;&lt;li&gt;Edit single file in group files (delete)&lt;/li&gt;&lt;li&gt;Click on a single file, open the single file page&lt;/li&gt;&lt;li&gt;Possibility to add another file to group action file&lt;/li&gt;&lt;li&gt;&amp;nbsp;We really need different pages logic? idk if is possible to do all in a single dashboard with qt&lt;/li&gt;&lt;/ul&gt;" style="shape=card;whiteSpace=wrap;html=1;align=left;" vertex="1" parent="1">
          <mxGeometry x="40" y="40" width="390" height="180" as="geometry" />
        </mxCell>
        <mxCell id="dQmTUkOF_J-LCE25Mf6I-44" value="Result can be a downloadable item and/or string info" style="shape=card;whiteSpace=wrap;html=1;" vertex="1" parent="1">
          <mxGeometry x="830" y="280" width="290" height="110" as="geometry" />
        </mxCell>
        <mxCell id="dQmTUkOF_J-LCE25Mf6I-45" style="edgeStyle=orthogonalEdgeStyle;rounded=1;orthogonalLoop=1;jettySize=auto;html=1;entryX=0;entryY=0;entryDx=0;entryDy=65;entryPerimeter=0;curved=0;dashed=1;" edge="1" parent="1" source="dQmTUkOF_J-LCE25Mf6I-26" target="dQmTUkOF_J-LCE25Mf6I-44">
          <mxGeometry relative="1" as="geometry" />
        </mxCell>
        <mxCell id="dQmTUkOF_J-LCE25Mf6I-47" value="&lt;h1 style=&quot;margin-top: 0px;&quot;&gt;&lt;font style=&quot;font-size: 17px;&quot;&gt;Info&lt;/font&gt;&lt;/h1&gt;&lt;p&gt;In this file there is one CF&lt;br&gt;- ABC12D3E456F&lt;/p&gt;" style="text;html=1;whiteSpace=wrap;overflow=hidden;rounded=0;" vertex="1" parent="1">
          <mxGeometry x="550" y="540" width="180" height="120" as="geometry" />
        </mxCell>
      </root>
    </mxGraphModel>
  </diagram>
</mxfile>
